<svg xmlns="http://www.w3.org/2000/svg" xmlns:xlink="http://www.w3.org/1999/xlink" width="500" zoomAndPan="magnify" viewBox="0 0 375 374.999991" height="500" preserveAspectRatio="xMidYMid meet" version="1.0"><defs><g/></defs><rect x="-37.5" width="450" fill="#ffffff" y="-37.499999" height="449.999989" fill-opacity="1"/><rect x="-37.5" width="450" fill="#ffffff" y="-37.499999" height="449.999989" fill-opacity="1"/><rect x="-37.5" width="450" fill="#000000" y="-37.499999" height="449.999989" fill-opacity="1"/><g fill="#ffffff" fill-opacity="0.4"><g transform="translate(100.812799, 233.726721)"><g><path d="M 62.964844 -90.730469 C 62.964844 -76.523438 43.914062 -76.523438 43.914062 -76.523438 L 24.539062 -76.523438 L 24.539062 -106.070312 L 43.914062 -106.070312 C 43.914062 -106.070312 62.964844 -106.230469 62.964844 -90.730469 Z M 87.664062 -92.183594 C 87.664062 -130.125 43.914062 -129.15625 43.914062 -129.15625 L 1.777344 -129.15625 C 0.808594 -129.15625 0 -128.347656 0 -127.703125 L 0 -52.46875 L 43.914062 -52.46875 C 43.914062 -52.46875 64.738281 -53.4375 64.738281 -38.261719 C 64.738281 -25.832031 51.984375 -23.570312 43.914062 -23.570312 L 24.699219 -23.570312 L 24.699219 0 L 43.914062 0 C 52.632812 0 89.441406 -1.613281 89.441406 -37.617188 C 89.441406 -37.617188 90.246094 -57.636719 69.746094 -64.578125 C 79.59375 -68.613281 87.664062 -77.171875 87.664062 -92.183594 Z M 87.664062 -92.183594 "/></g></g></g><g fill="#ffffff" fill-opacity="1"><g transform="translate(93.677569, 226.591493)"><g><path d="M 62.964844 -90.730469 C 62.964844 -76.523438 43.914062 -76.523438 43.914062 -76.523438 L 24.539062 -76.523438 L 24.539062 -106.070312 L 43.914062 -106.070312 C 43.914062 -106.070312 62.964844 -106.230469 62.964844 -90.730469 Z M 87.664062 -92.183594 C 87.664062 -130.125 43.914062 -129.15625 43.914062 -129.15625 L 1.777344 -129.15625 C 0.808594 -129.15625 0 -128.347656 0 -127.703125 L 0 -52.46875 L 43.914062 -52.46875 C 43.914062 -52.46875 64.738281 -53.4375 64.738281 -38.261719 C 64.738281 -25.832031 51.984375 -23.570312 43.914062 -23.570312 L 24.699219 -23.570312 L 24.699219 0 L 43.914062 0 C 52.632812 0 89.441406 -1.613281 89.441406 -37.617188 C 89.441406 -37.617188 90.246094 -57.636719 69.746094 -64.578125 C 79.59375 -68.613281 87.664062 -77.171875 87.664062 -92.183594 Z M 87.664062 -92.183594 "/></g></g></g><g fill="#ffffff" fill-opacity="0.4"><g transform="translate(199.29062, 290.543326)"><g><path d="M 88.148438 -2.097656 C 80.078125 -20.019531 71.359375 -37.777344 63.285156 -56.019531 C 76.203125 -60.703125 87.019531 -71.035156 87.019531 -90.730469 C 87.019531 -128.832031 50.695312 -129.15625 43.429688 -129.15625 L 1.613281 -129.15625 C 0.808594 -129.15625 0 -128.347656 0 -127.703125 L 0 -105.746094 L 43.429688 -105.746094 C 47.304688 -105.746094 62.480469 -104.9375 62.480469 -90.730469 C 62.480469 -76.523438 48.757812 -75.878906 43.429688 -75.878906 L 0 -75.878906 L 0 -1.453125 C 0 -0.808594 0.808594 0 1.613281 0 L 22.765625 0 C 23.730469 0 24.539062 -0.808594 24.539062 -1.453125 L 24.539062 -52.148438 L 38.425781 -52.148438 L 61.996094 -0.96875 C 62.15625 -0.484375 63.125 0 63.609375 0 L 86.695312 0 C 87.988281 0 88.632812 -0.96875 88.148438 -2.097656 Z M 88.148438 -2.097656 "/></g></g></g><g fill="#ffffff" fill-opacity="1"><g transform="translate(192.155397, 283.408095)"><g><path d="M 88.148438 -2.097656 C 80.078125 -20.019531 71.359375 -37.777344 63.285156 -56.019531 C 76.203125 -60.703125 87.019531 -71.035156 87.019531 -90.730469 C 87.019531 -128.832031 50.695312 -129.15625 43.429688 -129.15625 L 1.613281 -129.15625 C 0.808594 -129.15625 0 -128.347656 0 -127.703125 L 0 -105.746094 L 43.429688 -105.746094 C 47.304688 -105.746094 62.480469 -104.9375 62.480469 -90.730469 C 62.480469 -76.523438 48.757812 -75.878906 43.429688 -75.878906 L 0 -75.878906 L 0 -1.453125 C 0 -0.808594 0.808594 0 1.613281 0 L 22.765625 0 C 23.730469 0 24.539062 -0.808594 24.539062 -1.453125 L 24.539062 -52.148438 L 38.425781 -52.148438 L 61.996094 -0.96875 C 62.15625 -0.484375 63.125 0 63.609375 0 L 86.695312 0 C 87.988281 0 88.632812 -0.96875 88.148438 -2.097656 Z M 88.148438 -2.097656 "/></g></g></g><g fill="#ffffff" fill-opacity="0.4"><g transform="translate(100.359062, 281.11476)"><g><path d="M 9.765625 -3.34375 C 9.765625 -2.195312 9.425781 -1.351562 8.75 -0.8125 C 8.082031 -0.269531 7.023438 0 5.578125 0 L 0.875 0 L 0.875 -11.40625 L 5.578125 -11.40625 C 6.890625 -11.40625 7.820312 -11.175781 8.375 -10.71875 C 8.925781 -10.269531 9.203125 -9.507812 9.203125 -8.4375 C 9.203125 -7.757812 9.109375 -7.238281 8.921875 -6.875 C 8.742188 -6.519531 8.382812 -6.25 7.84375 -6.0625 C 8.5 -5.925781 8.984375 -5.632812 9.296875 -5.1875 C 9.609375 -4.738281 9.765625 -4.125 9.765625 -3.34375 Z M 6.609375 -8.015625 C 6.609375 -8.421875 6.53125 -8.703125 6.375 -8.859375 C 6.21875 -9.015625 5.953125 -9.09375 5.578125 -9.09375 L 3.6875 -9.09375 L 3.6875 -6.78125 L 5.578125 -6.78125 C 5.953125 -6.78125 6.21875 -6.875 6.375 -7.0625 C 6.53125 -7.25 6.609375 -7.566406 6.609375 -8.015625 Z M 7.03125 -3.53125 C 7.03125 -3.96875 6.921875 -4.269531 6.703125 -4.4375 C 6.492188 -4.613281 6.117188 -4.703125 5.578125 -4.703125 L 3.6875 -4.703125 L 3.6875 -2.40625 L 5.578125 -2.40625 C 6.117188 -2.40625 6.492188 -2.488281 6.703125 -2.65625 C 6.921875 -2.820312 7.03125 -3.113281 7.03125 -3.53125 Z M 7.03125 -3.53125 "/></g></g></g><g fill="#ffffff" fill-opacity="0.4"><g transform="translate(112.30515, 281.11476)"><g><path d="M 8.140625 -2.640625 L 8.140625 0 L 0.875 0 L 0.875 -11.40625 L 3.6875 -11.40625 L 3.6875 -2.640625 Z M 8.140625 -2.640625 "/></g></g></g><g fill="#ffffff" fill-opacity="0.4"><g transform="translate(122.50576, 281.11476)"><g><path d="M 2.90625 0 L -0.046875 0 L 4.171875 -11.40625 L 7.09375 -11.40625 L 11.203125 0 L 8.25 0 L 7.65625 -1.90625 L 3.515625 -1.90625 Z M 5.5625 -8.609375 C 5.46875 -8.265625 5.363281 -7.898438 5.25 -7.515625 C 5.132812 -7.140625 4.941406 -6.519531 4.671875 -5.65625 L 4.203125 -4.140625 L 6.953125 -4.140625 L 6.46875 -5.65625 C 6.3125 -6.113281 6.15625 -6.597656 6 -7.109375 C 5.84375 -7.628906 5.695312 -8.128906 5.5625 -8.609375 Z M 5.5625 -8.609375 "/></g></g></g><g fill="#ffffff" fill-opacity="0.4"><g transform="translate(135.506418, 281.11476)"><g><path d="M 5.8125 -2.453125 C 6.300781 -2.453125 6.828125 -2.503906 7.390625 -2.609375 C 7.960938 -2.710938 8.476562 -2.847656 8.9375 -3.015625 L 8.9375 -0.53125 C 8.269531 -0.257812 7.664062 -0.0703125 7.125 0.03125 C 6.59375 0.132812 6.035156 0.1875 5.453125 0.1875 C 4.398438 0.1875 3.554688 0.0664062 2.921875 -0.171875 C 2.296875 -0.421875 1.796875 -0.8125 1.421875 -1.34375 C 1.109375 -1.800781 0.875 -2.390625 0.71875 -3.109375 C 0.5625 -3.828125 0.484375 -4.691406 0.484375 -5.703125 C 0.484375 -7.742188 0.921875 -9.234375 1.796875 -10.171875 C 2.679688 -11.109375 4.082031 -11.578125 6 -11.578125 C 6.5625 -11.578125 7.054688 -11.566406 7.484375 -11.546875 C 7.921875 -11.523438 8.316406 -11.484375 8.671875 -11.421875 L 8.671875 -8.96875 C 8.273438 -8.988281 7.859375 -9.003906 7.421875 -9.015625 C 6.992188 -9.035156 6.519531 -9.046875 6 -9.046875 C 5.332031 -9.046875 4.835938 -8.976562 4.515625 -8.84375 C 4.191406 -8.71875 3.953125 -8.5 3.796875 -8.1875 C 3.648438 -7.945312 3.546875 -7.625 3.484375 -7.21875 C 3.429688 -6.820312 3.40625 -6.316406 3.40625 -5.703125 C 3.40625 -5.140625 3.429688 -4.664062 3.484375 -4.28125 C 3.535156 -3.894531 3.625 -3.578125 3.75 -3.328125 C 3.90625 -3.015625 4.132812 -2.789062 4.4375 -2.65625 C 4.738281 -2.519531 5.195312 -2.453125 5.8125 -2.453125 Z M 5.8125 -2.453125 "/></g></g></g><g fill="#ffffff" fill-opacity="0.4"><g transform="translate(146.56159, 281.11476)"><g><path d="M 6.859375 -5.875 L 11.125 0 L 7.5625 0 L 4.453125 -4.65625 L 3.6875 -4.65625 L 3.6875 0 L 0.875 0 L 0.875 -11.40625 L 3.6875 -11.40625 L 3.6875 -6.90625 L 4.453125 -6.90625 L 7.609375 -11.40625 L 10.984375 -11.40625 Z M 6.859375 -5.875 "/></g></g></g><g fill="#ffffff" fill-opacity="1"><g transform="translate(99.555323, 280.311029)"><g><path d="M 9.765625 -3.34375 C 9.765625 -2.195312 9.425781 -1.351562 8.75 -0.8125 C 8.082031 -0.269531 7.023438 0 5.578125 0 L 0.875 0 L 0.875 -11.40625 L 5.578125 -11.40625 C 6.890625 -11.40625 7.820312 -11.175781 8.375 -10.71875 C 8.925781 -10.269531 9.203125 -9.507812 9.203125 -8.4375 C 9.203125 -7.757812 9.109375 -7.238281 8.921875 -6.875 C 8.742188 -6.519531 8.382812 -6.25 7.84375 -6.0625 C 8.5 -5.925781 8.984375 -5.632812 9.296875 -5.1875 C 9.609375 -4.738281 9.765625 -4.125 9.765625 -3.34375 Z M 6.609375 -8.015625 C 6.609375 -8.421875 6.53125 -8.703125 6.375 -8.859375 C 6.21875 -9.015625 5.953125 -9.09375 5.578125 -9.09375 L 3.6875 -9.09375 L 3.6875 -6.78125 L 5.578125 -6.78125 C 5.953125 -6.78125 6.21875 -6.875 6.375 -7.0625 C 6.53125 -7.25 6.609375 -7.566406 6.609375 -8.015625 Z M 7.03125 -3.53125 C 7.03125 -3.96875 6.921875 -4.269531 6.703125 -4.4375 C 6.492188 -4.613281 6.117188 -4.703125 5.578125 -4.703125 L 3.6875 -4.703125 L 3.6875 -2.40625 L 5.578125 -2.40625 C 6.117188 -2.40625 6.492188 -2.488281 6.703125 -2.65625 C 6.921875 -2.820312 7.03125 -3.113281 7.03125 -3.53125 Z M 7.03125 -3.53125 "/></g></g></g><g fill="#ffffff" fill-opacity="1"><g transform="translate(111.501412, 280.311029)"><g><path d="M 8.140625 -2.640625 L 8.140625 0 L 0.875 0 L 0.875 -11.40625 L 3.6875 -11.40625 L 3.6875 -2.640625 Z M 8.140625 -2.640625 "/></g></g></g><g fill="#ffffff" fill-opacity="1"><g transform="translate(121.702022, 280.311029)"><g><path d="M 2.90625 0 L -0.046875 0 L 4.171875 -11.40625 L 7.09375 -11.40625 L 11.203125 0 L 8.25 0 L 7.65625 -1.90625 L 3.515625 -1.90625 Z M 5.5625 -8.609375 C 5.46875 -8.265625 5.363281 -7.898438 5.25 -7.515625 C 5.132812 -7.140625 4.941406 -6.519531 4.671875 -5.65625 L 4.203125 -4.140625 L 6.953125 -4.140625 L 6.46875 -5.65625 C 6.3125 -6.113281 6.15625 -6.597656 6 -7.109375 C 5.84375 -7.628906 5.695312 -8.128906 5.5625 -8.609375 Z M 5.5625 -8.609375 "/></g></g></g><g fill="#ffffff" fill-opacity="1"><g transform="translate(134.702679, 280.311029)"><g><path d="M 5.8125 -2.453125 C 6.300781 -2.453125 6.828125 -2.503906 7.390625 -2.609375 C 7.960938 -2.710938 8.476562 -2.847656 8.9375 -3.015625 L 8.9375 -0.53125 C 8.269531 -0.257812 7.664062 -0.0703125 7.125 0.03125 C 6.59375 0.132812 6.035156 0.1875 5.453125 0.1875 C 4.398438 0.1875 3.554688 0.0664062 2.921875 -0.171875 C 2.296875 -0.421875 1.796875 -0.8125 1.421875 -1.34375 C 1.109375 -1.800781 0.875 -2.390625 0.71875 -3.109375 C 0.5625 -3.828125 0.484375 -4.691406 0.484375 -5.703125 C 0.484375 -7.742188 0.921875 -9.234375 1.796875 -10.171875 C 2.679688 -11.109375 4.082031 -11.578125 6 -11.578125 C 6.5625 -11.578125 7.054688 -11.566406 7.484375 -11.546875 C 7.921875 -11.523438 8.316406 -11.484375 8.671875 -11.421875 L 8.671875 -8.96875 C 8.273438 -8.988281 7.859375 -9.003906 7.421875 -9.015625 C 6.992188 -9.035156 6.519531 -9.046875 6 -9.046875 C 5.332031 -9.046875 4.835938 -8.976562 4.515625 -8.84375 C 4.191406 -8.71875 3.953125 -8.5 3.796875 -8.1875 C 3.648438 -7.945312 3.546875 -7.625 3.484375 -7.21875 C 3.429688 -6.820312 3.40625 -6.316406 3.40625 -5.703125 C 3.40625 -5.140625 3.429688 -4.664062 3.484375 -4.28125 C 3.535156 -3.894531 3.625 -3.578125 3.75 -3.328125 C 3.90625 -3.015625 4.132812 -2.789062 4.4375 -2.65625 C 4.738281 -2.519531 5.195312 -2.453125 5.8125 -2.453125 Z M 5.8125 -2.453125 "/></g></g></g><g fill="#ffffff" fill-opacity="1"><g transform="translate(145.757852, 280.311029)"><g><path d="M 6.859375 -5.875 L 11.125 0 L 7.5625 0 L 4.453125 -4.65625 L 3.6875 -4.65625 L 3.6875 0 L 0.875 0 L 0.875 -11.40625 L 3.6875 -11.40625 L 3.6875 -6.90625 L 4.453125 -6.90625 L 7.609375 -11.40625 L 10.984375 -11.40625 Z M 6.859375 -5.875 "/></g></g></g><g fill="#ffffff" fill-opacity="0.4"><g transform="translate(246.206985, 112.382495)"><g><path d="M 3.6875 -3.671875 L 3.6875 0 L 0.875 0 L 0.875 -11.40625 L 5.03125 -11.40625 C 6.789062 -11.40625 8.039062 -11.109375 8.78125 -10.515625 C 9.519531 -9.921875 9.890625 -8.929688 9.890625 -7.546875 C 9.890625 -6.609375 9.691406 -5.847656 9.296875 -5.265625 C 8.910156 -4.679688 8.316406 -4.253906 7.515625 -3.984375 L 10.296875 0 L 6.90625 0 L 4.546875 -3.671875 Z M 7.03125 -7.546875 C 7.03125 -8.035156 6.882812 -8.375 6.59375 -8.5625 C 6.3125 -8.757812 5.789062 -8.859375 5.03125 -8.859375 L 3.6875 -8.859375 L 3.6875 -5.953125 L 5.03125 -5.953125 C 5.789062 -5.953125 6.3125 -6.066406 6.59375 -6.296875 C 6.882812 -6.535156 7.03125 -6.953125 7.03125 -7.546875 Z M 7.03125 -7.546875 "/></g></g></g><g fill="#ffffff" fill-opacity="0.4"><g transform="translate(258.516725, 112.382495)"><g><path d="M 8.734375 -2.640625 L 8.734375 0 L 0.875 0 L 0.875 -11.40625 L 8.5625 -11.40625 L 8.5625 -8.859375 L 3.6875 -8.859375 L 3.6875 -6.96875 L 7.890625 -6.96875 L 7.890625 -4.59375 L 3.6875 -4.59375 L 3.6875 -2.640625 Z M 8.734375 -2.640625 "/></g></g></g><g fill="#ffffff" fill-opacity="0.4"><g transform="translate(269.517353, 112.382495)"><g><path d="M 8.140625 -2.640625 L 8.140625 0 L 0.875 0 L 0.875 -11.40625 L 3.6875 -11.40625 L 3.6875 -2.640625 Z M 8.140625 -2.640625 "/></g></g></g><g fill="#ffffff" fill-opacity="1"><g transform="translate(245.403254, 111.578757)"><g><path d="M 3.6875 -3.671875 L 3.6875 0 L 0.875 0 L 0.875 -11.40625 L 5.03125 -11.40625 C 6.789062 -11.40625 8.039062 -11.109375 8.78125 -10.515625 C 9.519531 -9.921875 9.890625 -8.929688 9.890625 -7.546875 C 9.890625 -6.609375 9.691406 -5.847656 9.296875 -5.265625 C 8.910156 -4.679688 8.316406 -4.253906 7.515625 -3.984375 L 10.296875 0 L 6.90625 0 L 4.546875 -3.671875 Z M 7.03125 -7.546875 C 7.03125 -8.035156 6.882812 -8.375 6.59375 -8.5625 C 6.3125 -8.757812 5.789062 -8.859375 5.03125 -8.859375 L 3.6875 -8.859375 L 3.6875 -5.953125 L 5.03125 -5.953125 C 5.789062 -5.953125 6.3125 -6.066406 6.59375 -6.296875 C 6.882812 -6.535156 7.03125 -6.953125 7.03125 -7.546875 Z M 7.03125 -7.546875 "/></g></g></g><g fill="#ffffff" fill-opacity="1"><g transform="translate(257.712994, 111.578757)"><g><path d="M 8.734375 -2.640625 L 8.734375 0 L 0.875 0 L 0.875 -11.40625 L 8.5625 -11.40625 L 8.5625 -8.859375 L 3.6875 -8.859375 L 3.6875 -6.96875 L 7.890625 -6.96875 L 7.890625 -4.59375 L 3.6875 -4.59375 L 3.6875 -2.640625 Z M 8.734375 -2.640625 "/></g></g></g><g fill="#ffffff" fill-opacity="1"><g transform="translate(268.713622, 111.578757)"><g><path d="M 8.140625 -2.640625 L 8.140625 0 L 0.875 0 L 0.875 -11.40625 L 3.6875 -11.40625 L 3.6875 -2.640625 Z M 8.140625 -2.640625 "/></g></g></g><path stroke-linecap="butt" transform="matrix(0.749812, 0, 0, 0.75, 0.0000045, 285.517306)" fill="none" stroke-linejoin="miter" d="M -0.0000060015 1.997759 L 375.098984 1.997759 " stroke="#ffffff" stroke-width="4" stroke-opacity="1" stroke-miterlimit="4"/><path stroke-linecap="butt" transform="matrix(0.749812, 0, 0, 0.75, 93.677569, 92.290086)" fill="none" stroke-linejoin="miter" d="M -0.00238393 1.998636 L 375.096606 1.998636 " stroke="#ffffff" stroke-width="4" stroke-opacity="1" stroke-miterlimit="4"/></svg>